<svg width="492" height="356" viewBox="0 0 492 356" fill="none" xmlns="http://www.w3.org/2000/svg">
<path d="M-16 300L-41 240H-16H9L34 300L9 360H-16H-41L-16 300Z" fill="white" fill-opacity="0.06"/>
<path d="M75 300L50 240H75H100L125 300L100 360H75H50L75 300Z" fill="white" fill-opacity="0.06"/>
<path d="M166 300L141 240H166H191L216 300L191 360H166H141L166 300Z" fill="white" fill-opacity="0.06"/>
<path d="M257 300L232 240H257H282L307 300L282 360H257H232L257 300Z" fill="white" fill-opacity="0.06"/>
<path d="M348 300L323 240H348H373L398 300L373 360H348H323L348 300Z" fill="white" fill-opacity="0.06"/>
<path d="M439 300L414 240H439H464L489 300L464 360H439H414L439 300Z" fill="white" fill-opacity="0.06"/>
<path d="M29 180L4 120H29H54L79 180L54 240H29H4L29 180Z" fill="white" fill-opacity="0.06"/>
<path d="M120 180L95 120H120H145L170 180L145 240H120H95L120 180Z" fill="white" fill-opacity="0.06"/>
<path d="M211 180L186 120H211H236L261 180L236 240H211H186L211 180Z" fill="white" fill-opacity="0.06"/>
<path d="M302 180L277 120H302H327L352 180L327 240H302H277L302 180Z" fill="white" fill-opacity="0.06"/>
<path d="M393 180L368 120H393H418L443 180L418 240H393H368L393 180Z" fill="white" fill-opacity="0.06"/>
<path d="M484 180L459 120H484H509L534 180L509 240H484H459L484 180Z" fill="white" fill-opacity="0.06"/>
<path d="M-17 60L-42 0H-17H8L33 60L8 120H-17H-42L-17 60Z" fill="white" fill-opacity="0.06"/>
<path d="M74 60L49 0H74H99L124 60L99 120H74H49L74 60Z" fill="white" fill-opacity="0.06"/>
<path d="M165 60L140 0H165H190L215 60L190 120H165H140L165 60Z" fill="white" fill-opacity="0.06"/>
<path d="M256 60L231 0H256H281L306 60L281 120H256H231L256 60Z" fill="white" fill-opacity="0.06"/>
<path d="M347 60L322 0H347H372L397 60L372 120H347H322L347 60Z" fill="white" fill-opacity="0.06"/>
<path d="M438 60L413 0H438H463L488 60L463 120H438H413L438 60Z" fill="white" fill-opacity="0.06"/>
</svg>
